<svg width="20" height="20" viewBox="0 0 20 20" fill="none" xmlns="http://www.w3.org/2000/svg">
<path d="M10.0473 16.1667C8.33479 16.1667 6.87902 15.5672 5.68 14.3681C4.48097 13.169 3.88145 11.7129 3.88145 10C3.88145 8.45084 4.38257 7.10521 5.38479 5.96313C6.38701 4.82104 7.62993 4.13785 9.11354 3.91354C9.14534 3.91354 9.17659 3.91514 9.20729 3.91834C9.23784 3.92153 9.27395 3.92632 9.31562 3.93271C9.06243 4.32479 8.8643 4.73667 8.72125 5.16834C8.57805 5.59986 8.50645 6.04375 8.50645 6.5C8.50645 7.91209 8.99368 9.10535 9.96812 10.0798C10.9427 11.0544 12.136 11.5417 13.5481 11.5417C13.9935 11.5417 14.4348 11.4701 14.8719 11.3269C15.3088 11.1837 15.718 10.9855 16.0994 10.7323C16.1058 10.774 16.1106 10.8101 16.1137 10.8408C16.1169 10.8715 16.1185 10.9027 16.1185 10.9344C15.9049 12.4181 15.2268 13.6611 14.0842 14.6633C12.9415 15.6656 11.5959 16.1667 10.0473 16.1667Z" fill="url(#paint0_linear_495_5)"/>
<defs>
<linearGradient id="paint0_linear_495_5" x1="10" y1="3.91354" x2="10" y2="16.1667" gradientUnits="userSpaceOnUse">
<stop stop-color="#FFDD01" stop-opacity="0.996078"/>
<stop offset="1" stop-color="#FA8501" stop-opacity="0.996078"/>
</linearGradient>
</defs>
</svg>
